<svg width="20" height="25" viewBox="0 0 20 25" fill="none" xmlns="http://www.w3.org/2000/svg">
<path d="M12.2361 19.4C13.3361 19.4 14.2361 18.5 14.2361 17.4C14.2361 16.3 13.3361 15.4 12.2361 15.4C11.1361 15.4 10.2361 16.3 10.2361 17.4C10.3361 18.5 11.1361 19.4 12.2361 19.4ZM12.2361 16.5C12.7361 16.5 13.1361 16.9 13.1361 17.4C13.1361 17.9 12.7361 18.3 12.2361 18.3C11.7361 18.3 11.3361 17.9 11.3361 17.4C11.3361 16.9 11.7361 16.5 12.2361 16.5Z" fill="#888888" stroke="#888888" stroke-width="0.1" stroke-miterlimit="1.41421"/>
<path d="M19.0361 20.9C19.0361 20.8 19.0361 20.7 18.9361 20.7C18.9361 20.6 18.9361 20.6 18.8361 20.5C18.8361 20.4 18.7361 20.2 18.6361 19.9L18.3361 19.1C18.1361 18.7 17.9361 18 17.7361 17.6L11.4361 2.2C11.3361 1.8 10.9361 1 10.1361 1H10.0361H9.93607C9.13607 1 8.73607 1.8 8.63607 2.2L2.33607 17.6C2.13607 18 1.93607 18.7 1.73607 19.1L1.43607 19.9C1.33607 20.2 1.23607 20.4 1.23607 20.5C1.23607 20.6 1.13607 20.6 1.13607 20.7C1.13607 20.8 1.03607 20.9 1.03607 21C0.936068 21.3 1.03607 21.7 1.43607 22.1C1.53607 22.1 1.53607 22.2 1.63607 22.2C1.73607 22.3 1.93607 22.4 2.13607 22.5C2.33607 22.5 4.93607 24 9.73607 24C9.83607 24 9.93607 24 10.0361 24C10.1361 24 10.2361 24 10.3361 24C15.1361 24 17.7361 22.5 17.8361 22.4C18.0361 22.3 18.2361 22.2 18.3361 22.1C18.4361 22 18.5361 22 18.5361 21.9C19.0361 21.6 19.0361 21.2 19.0361 20.9ZM11.8361 5.9L12.8361 8.4C12.5361 8.5 12.2361 8.6 11.9361 8.4C11.6361 8.3 11.3361 8.1 11.1361 7.7C11.0361 7.5 10.9361 7.1 11.0361 6.8C11.2361 6.4 11.4361 6.2 11.8361 5.9C11.8361 6 11.7361 6 11.8361 5.9ZM6.73607 9.5C7.43607 9.9 8.03607 10.4 8.33607 11.1C8.63607 11.8 8.63607 12.7 8.33607 13.4C8.03607 14.2 7.43607 14.7 6.73607 15.1C6.03607 15.4 5.23607 15.4 4.53607 15.1L6.73607 9.5ZM4.13607 16.1C5.13607 16.5 6.23607 16.5 7.13607 16C8.13607 15.6 8.93607 14.8 9.33607 13.8C9.73607 12.8 9.73607 11.7 9.33607 10.7C8.83607 9.7 8.13607 9 7.13607 8.6L9.53607 2.6C9.73607 2.3 9.83607 2 9.93607 2C9.93607 2.1 10.0361 2.1 10.0361 2.1C10.0361 2.1 10.1361 2.1 10.1361 2C10.2361 2 10.3361 2.2 10.5361 2.6L11.5361 5C11.4361 5 11.4361 5 11.3361 5C10.7361 5.3 10.3361 5.8 10.1361 6.4C9.83607 7 9.93607 7.7 10.2361 8.2C10.5361 8.8 11.0361 9.2 11.6361 9.4C12.1361 9.6 12.7361 9.6 13.3361 9.3L16.8361 17.9C16.9361 18.2 17.1361 18.7 17.3361 19.1C17.2361 19.1 17.2361 19.1 17.1361 19.1C17.0361 19.1 10.7361 22.4 2.93607 19.1H2.83607C3.03607 18.7 3.23607 18.2 3.33607 17.9L4.13607 16.1ZM17.3361 21.5C17.3361 21.5 14.9361 22.9 10.3361 22.9C10.2361 22.9 10.1361 22.9 10.0361 22.9C9.93607 22.9 9.83607 22.9 9.73607 22.9C5.13607 22.9 2.73607 21.5 2.73607 21.5C2.33607 21.3 2.03607 21.1 2.03607 21.1C2.03607 21.1 2.13607 20.8 2.33607 20.4L2.43607 20.3L2.53607 20.4C6.83607 22.2 10.7361 22.1 13.1361 21.7C15.8361 21.3 17.5361 20.4 17.5361 20.3C17.5361 20.3 17.5361 20.3 17.6361 20.3L17.7361 20.4C17.8361 20.7 18.0361 21 18.0361 21C18.0361 21.1 17.7361 21.3 17.3361 21.5Z" fill="#888888"/>
<path d="M11.8361 5.9L12.8361 8.4C12.5361 8.5 12.2361 8.6 11.9361 8.4C11.6361 8.3 11.3361 8.1 11.1361 7.7C11.0361 7.5 10.9361 7.1 11.0361 6.8C11.2361 6.4 11.4361 6.2 11.8361 5.9ZM11.8361 5.9C11.7361 6 11.8361 6 11.8361 5.9ZM19.0361 20.9C19.0361 20.8 19.0361 20.7 18.9361 20.7C18.9361 20.6 18.9361 20.6 18.8361 20.5C18.8361 20.4 18.7361 20.2 18.6361 19.9L18.3361 19.1C18.1361 18.7 17.9361 18 17.7361 17.6L11.4361 2.2C11.3361 1.8 10.9361 1 10.1361 1H10.0361H9.93607C9.13607 1 8.73607 1.8 8.63607 2.2L2.33607 17.6C2.13607 18 1.93607 18.7 1.73607 19.1L1.43607 19.9C1.33607 20.2 1.23607 20.4 1.23607 20.5C1.23607 20.6 1.13607 20.6 1.13607 20.7C1.13607 20.8 1.03607 20.9 1.03607 21C0.936068 21.3 1.03607 21.7 1.43607 22.1C1.53607 22.1 1.53607 22.2 1.63607 22.2C1.73607 22.3 1.93607 22.4 2.13607 22.5C2.33607 22.5 4.93607 24 9.73607 24C9.83607 24 9.93607 24 10.0361 24C10.1361 24 10.2361 24 10.3361 24C15.1361 24 17.7361 22.5 17.8361 22.4C18.0361 22.3 18.2361 22.2 18.3361 22.1C18.4361 22 18.5361 22 18.5361 21.9C19.0361 21.6 19.0361 21.2 19.0361 20.9ZM6.73607 9.5C7.43607 9.9 8.03607 10.4 8.33607 11.1C8.63607 11.8 8.63607 12.7 8.33607 13.4C8.03607 14.2 7.43607 14.7 6.73607 15.1C6.03607 15.4 5.23607 15.4 4.53607 15.1L6.73607 9.5ZM4.13607 16.1C5.13607 16.5 6.23607 16.5 7.13607 16C8.13607 15.6 8.93607 14.8 9.33607 13.8C9.73607 12.8 9.73607 11.7 9.33607 10.7C8.83607 9.7 8.13607 9 7.13607 8.6L9.53607 2.6C9.73607 2.3 9.83607 2 9.93607 2C9.93607 2.1 10.0361 2.1 10.0361 2.1C10.0361 2.1 10.1361 2.1 10.1361 2C10.2361 2 10.3361 2.2 10.5361 2.6L11.5361 5C11.4361 5 11.4361 5 11.3361 5C10.7361 5.3 10.3361 5.8 10.1361 6.4C9.83607 7 9.93607 7.7 10.2361 8.2C10.5361 8.8 11.0361 9.2 11.6361 9.4C12.1361 9.6 12.7361 9.6 13.3361 9.3L16.8361 17.9C16.9361 18.2 17.1361 18.7 17.3361 19.1C17.2361 19.1 17.2361 19.1 17.1361 19.1C17.0361 19.1 10.7361 22.4 2.93607 19.1H2.83607C3.03607 18.7 3.23607 18.2 3.33607 17.9L4.13607 16.1ZM17.3361 21.5C17.3361 21.5 14.9361 22.9 10.3361 22.9C10.2361 22.9 10.1361 22.9 10.0361 22.9C9.93607 22.9 9.83607 22.9 9.73607 22.9C5.13607 22.9 2.73607 21.5 2.73607 21.5C2.33607 21.3 2.03607 21.1 2.03607 21.1C2.03607 21.1 2.13607 20.8 2.33607 20.4L2.43607 20.3L2.53607 20.4C6.83607 22.2 10.7361 22.1 13.1361 21.7C15.8361 21.3 17.5361 20.4 17.5361 20.3C17.5361 20.3 17.5361 20.3 17.6361 20.3L17.7361 20.4C17.8361 20.7 18.0361 21 18.0361 21C18.0361 21.1 17.7361 21.3 17.3361 21.5Z" stroke="#888888" stroke-width="0.1" stroke-miterlimit="1.41421"/>
</svg>
